ply
format ascii 1.0
comment File created by ReMESH v2.1alpha (2008)
element vertex 299
property float x
property float y
property float z
element face 594
property list uchar int vertex_indices
end_header
0.881008 0.362041 0.718577
0.601185 0.053002 0.515557
0.622819 0.027017 0.443258
0.782361 0.021881 0.246311
0.843302 0.065038 0.243234
1.000000 0.319151 0.508237
0.970021 0.356172 0.618590
0.926445 0.373287 0.686300
0.613096 0.712487 0.147655
0.591989 0.653246 0.100109
0.533235 0.738495 0.061578
0.587259 0.804465 0.209216
0.553717 0.792012 0.116263
0.679948 0.576596 0.313698
0.628281 0.734454 0.253824
0.669719 0.549321 0.250300
0.505015 0.588875 0.042238
0.534325 0.846632 0.161071
0.517633 0.678389 0.038699
0.630498 0.499468 0.178802
0.562452 0.468818 0.135086
0.589413 0.783009 0.342658
0.471399 0.841894 0.087474
0.722116 0.433075 0.272537
0.671632 0.598414 0.362498
0.550320 0.858112 0.255216
0.406645 0.839371 0.063018
0.460786 0.686087 0.011232
0.464914 0.530955 0.048849
0.555655 0.791000 0.395329
0.756120 0.481223 0.388823
0.395694 0.641475 0.000000
0.426298 0.742033 0.010947
0.661536 0.406655 0.212942
0.392849 0.433408 0.104011
0.449935 0.902274 0.164724
0.736895 0.322700 0.251508
0.511841 0.879248 0.314804
0.544439 0.412173 0.162884
0.514206 0.735545 0.490818
0.540591 0.692251 0.499244
0.458871 0.915690 0.270757
0.349807 0.589659 0.013849
0.617308 0.604806 0.466245
0.623234 0.344291 0.212937
0.642302 0.616049 0.419403
0.392951 0.929466 0.226855
0.355459 0.740271 0.005323
0.731506 0.496024 0.453641
0.752495 0.458750 0.330372
0.834273 0.360112 0.337966
0.352526 0.435199 0.108608
0.363298 0.421733 0.085134
0.714403 0.270833 0.244642
0.843755 0.408059 0.451773
0.356844 0.912121 0.152487
0.329404 0.833876 0.057977
0.406262 0.418064 0.089204
0.424240 0.409893 0.126323
0.282235 0.700074 0.012594
0.271871 0.877154 0.124098
0.468879 0.881445 0.367722
0.913455 0.336185 0.395383
0.373462 0.406434 0.077736
0.509612 0.370937 0.188480
0.436604 0.356078 0.120268
0.428697 0.393712 0.094608
0.279009 0.570375 0.037721
0.436129 0.382530 0.160865
0.242708 0.795818 0.060263
0.517656 0.746661 0.527096
0.548797 0.632769 0.512381
0.829556 0.405390 0.388096
0.344951 0.401700 0.101279
0.409644 0.376071 0.108465
0.448715 0.360957 0.130935
0.462760 0.747709 0.504257
0.545776 0.729152 0.528237
0.284957 0.924904 0.235263
0.322215 0.403668 0.118571
0.312355 0.410954 0.146798
0.391392 0.348887 0.133602
0.391423 0.363715 0.112347
0.442829 0.341580 0.214505
0.566263 0.295401 0.234889
0.784103 0.207846 0.255449
0.796037 0.305355 0.278504
0.432556 0.722863 0.525290
0.466873 0.742052 0.541116
0.740315 0.461891 0.510443
0.169502 0.816648 0.142118
0.230752 0.890239 0.188669
0.333719 0.374972 0.166390
0.351898 0.388385 0.147880
0.415551 0.331413 0.150473
0.276209 0.761558 0.028082
0.494469 0.724168 0.539580
0.532464 0.707055 0.548156
0.565107 0.673948 0.551663
0.563484 0.693586 0.526083
0.403111 0.888524 0.391012
0.450355 0.711113 0.548953
0.347229 0.934685 0.280046
0.977432 0.338389 0.485382
0.144657 0.512586 0.145876
0.206944 0.611814 0.052742
0.469687 0.686051 0.532879
0.540137 0.670932 0.566386
0.558396 0.622566 0.557710
0.546618 0.638495 0.529670
0.392898 0.357340 0.168511
0.422783 0.300598 0.197368
0.228461 0.803901 0.487816
0.422859 0.678794 0.556147
0.519260 0.567100 0.561815
0.372599 0.925560 0.326956
0.105819 0.819155 0.247804
0.396248 0.322297 0.177477
0.411332 0.293845 0.247229
0.910426 0.176081 0.278990
0.540117 0.592055 0.588372
0.586152 0.568060 0.519888
0.699094 0.460442 0.547006
0.260243 0.341139 0.242736
0.385821 0.354039 0.187367
0.368510 0.329395 0.203833
0.862514 0.116242 0.247795
0.459650 0.661395 0.557640
0.497526 0.637771 0.535406
0.234738 0.871283 0.410768
0.150258 0.676875 0.079461
0.684997 0.212479 0.257791
0.935712 0.245019 0.326434
0.504951 0.622176 0.549447
0.533639 0.641590 0.568765
0.401860 0.289108 0.211313
0.640991 0.178182 0.285986
0.741137 0.149577 0.258558
0.484756 0.636489 0.564804
0.522805 0.588552 0.594719
0.495656 0.545268 0.588784
0.532337 0.466585 0.599508
0.527584 0.547373 0.555268
0.801569 0.420222 0.529395
0.365167 0.300813 0.241272
0.470352 0.606949 0.580348
0.498537 0.602750 0.584963
0.584815 0.468634 0.579657
0.703328 0.394073 0.611025
0.468546 0.266396 0.290363
0.119208 0.718603 0.116330
0.078394 0.769900 0.210360
0.996001 0.271384 0.411691
0.967108 0.202258 0.331444
0.362178 0.643805 0.597009
0.414675 0.198423 0.369487
0.803675 0.062348 0.232893
0.457307 0.452969 0.655675
0.498148 0.429604 0.648582
0.224197 0.890176 0.360429
0.123209 0.426152 0.251148
0.073172 0.565056 0.162724
0.611055 0.133146 0.334622
0.704324 0.111344 0.277140
0.915033 0.132494 0.276908
0.303749 0.614944 0.620150
0.753602 0.358592 0.656657
0.813789 0.386648 0.612410
0.887242 0.387371 0.574138
0.969406 0.365331 0.570117
0.482223 0.219528 0.355807
0.083361 0.417053 0.324164
0.149746 0.376803 0.310610
0.127952 0.604202 0.575675
0.228783 0.615029 0.601146
0.151448 0.707063 0.545129
0.627355 0.395425 0.609272
0.033081 0.549410 0.229406
0.065553 0.629102 0.155670
0.222512 0.300258 0.322154
0.519570 0.227107 0.307275
0.091631 0.787442 0.432350
0.918620 0.384327 0.657911
0.136737 0.854930 0.299986
0.046076 0.752137 0.394935
0.524401 0.181449 0.376747
0.382587 0.193855 0.380336
0.456072 0.201092 0.391174
0.597452 0.074355 0.415733
0.664688 0.086508 0.314251
0.036025 0.673473 0.202514
0.630414 0.047539 0.376404
0.033912 0.746697 0.332725
0.276116 0.516391 0.642724
0.451849 0.369304 0.680304
0.581282 0.329287 0.614664
0.680458 0.305622 0.663154
0.948234 0.364729 0.652445
0.148106 0.384535 0.327682
0.108999 0.406455 0.365879
0.017294 0.689354 0.270627
0.154691 0.574035 0.582926
0.235249 0.517868 0.625339
0.133009 0.787526 0.470302
0.547875 0.393419 0.611116
0.132528 0.388955 0.376755
0.169657 0.557726 0.578197
0.097770 0.719674 0.505799
0.877061 0.374413 0.706155
0.083884 0.429278 0.376654
0.100449 0.427541 0.391374
0.127390 0.556386 0.547614
0.525847 0.331814 0.625358
0.124216 0.409656 0.399920
0.146720 0.396153 0.426475
0.176632 0.317854 0.415406
0.276554 0.221645 0.465696
0.725418 0.000000 0.280440
0.717611 0.018036 0.267839
0.158403 0.543102 0.559916
0.098503 0.565111 0.551009
0.009130 0.556707 0.311498
0.000000 0.622305 0.310709
0.394662 0.163360 0.454699
0.510774 0.177284 0.445368
0.202031 0.526811 0.597521
0.079558 0.461066 0.430202
0.051942 0.450376 0.374609
0.134061 0.553792 0.559432
0.190258 0.484797 0.577306
0.136334 0.444801 0.429219
0.672815 0.003127 0.342797
0.155628 0.523654 0.525628
0.296409 0.361394 0.654512
0.362687 0.404621 0.667173
0.380670 0.282551 0.690637
0.749028 0.274471 0.727181
0.015057 0.635260 0.405966
0.089945 0.524407 0.518506
0.119124 0.500498 0.511025
0.144944 0.511030 0.508805
0.506278 0.277799 0.620644
0.132526 0.457811 0.448772
0.150007 0.360720 0.495495
0.220015 0.274555 0.485737
0.151168 0.459019 0.543202
0.089121 0.466532 0.467291
0.074728 0.548478 0.517795
0.103021 0.445194 0.489088
0.541897 0.229817 0.613622
0.103739 0.476351 0.509825
0.234508 0.249302 0.544492
0.339965 0.166373 0.491129
0.451714 0.179579 0.479936
0.368422 0.155185 0.571603
0.094475 0.408709 0.544048
0.199444 0.273199 0.580125
0.056445 0.691839 0.473451
0.050941 0.469440 0.418254
0.470769 0.200715 0.564181
0.509268 0.176147 0.509884
0.559335 0.137080 0.549357
0.400294 0.249838 0.682274
0.608921 0.218761 0.646520
0.180754 0.313914 0.526241
0.197783 0.397585 0.603124
0.281438 0.270525 0.656523
0.161363 0.333011 0.548994
0.221360 0.248416 0.592132
0.333647 0.237521 0.679691
0.484110 0.238554 0.604570
0.143216 0.322066 0.534661
0.513331 0.196642 0.571295
0.118532 0.376379 0.597553
0.202811 0.376399 0.601974
0.176722 0.363449 0.585848
0.172403 0.340315 0.593268
0.597159 0.132504 0.613041
0.613503 0.146519 0.637925
0.158591 0.327347 0.579230
0.323275 0.156136 0.584831
0.429709 0.186004 0.564693
0.133720 0.357646 0.607420
0.204463 0.290100 0.613422
0.234227 0.312702 0.636452
0.234480 0.260462 0.624352
0.240518 0.290200 0.647308
0.098797 0.347304 0.577490
0.126259 0.335688 0.596650
0.117278 0.325706 0.571283
0.217068 0.273314 0.602217
0.258472 0.226792 0.602867
0.296993 0.191781 0.636003
0.344771 0.185443 0.660375
0.119405 0.460761 0.423126
0.599148 0.091262 0.578099
0.663940 0.195688 0.688811
0.803400 0.181453 0.495900
0.821867 0.330532 0.733478
3 173 201 174
3 174 165 173
3 8 15 9
3 10 12 8
3 8 12 11
3 11 14 8
3 8 13 15
3 10 9 18
3 14 13 8
3 19 16 9
3 15 19 9
3 11 12 17
3 16 18 9
3 27 10 18
3 19 20 16
3 25 21 14
3 14 11 25
3 15 23 19
3 21 24 14
3 17 25 11
3 20 28 16
3 32 22 10
3 23 15 49
3 16 27 18
3 32 26 22
3 29 45 21
3 45 24 21
3 20 19 33
3 13 49 15
3 49 13 30
3 28 31 16
3 31 27 16
3 35 25 17
3 58 34 28
3 26 35 22
3 31 32 27
3 33 23 36
3 20 33 38
3 40 29 39
3 41 37 25
3 42 31 28
3 32 47 26
3 40 43 45
3 34 42 28
3 28 38 58
3 47 56 26
3 39 29 61
3 46 41 35
3 30 24 48
3 51 80 34
3 33 44 38
3 86 36 23
3 45 48 24
3 72 50 49
3 52 34 57
3 31 47 32
3 48 54 30
3 30 72 49
3 55 56 60
3 52 51 34
3 57 63 52
3 31 42 59
3 59 47 31
3 50 86 23
3 54 72 30
3 50 72 62
3 57 66 63
3 58 57 34
3 64 68 38
3 33 53 44
3 86 50 132
3 52 79 51
3 74 73 63
3 66 65 63
3 65 74 63
3 66 57 58
3 56 95 69
3 121 43 71
3 46 102 41
3 55 46 35
3 73 79 52
3 75 66 58
3 76 70 39
3 70 76 88
3 70 77 39
3 77 40 39
3 99 109 40
3 61 100 39
3 109 71 40
3 60 78 55
3 73 82 81
3 64 83 68
3 53 131 44
3 53 36 85
3 87 88 76
3 37 41 61
3 41 115 61
3 115 100 61
3 102 115 41
3 90 91 60
3 92 80 79
3 73 92 79
3 92 73 93
3 65 94 74
3 94 82 74
3 86 85 36
3 69 90 60
3 101 88 87
3 88 96 70
3 96 97 70
3 77 97 98
3 77 99 40
3 48 143 54
3 81 93 73
3 82 94 81
3 68 83 118
3 88 101 106
3 43 122 48
3 78 102 46
3 91 78 60
3 103 62 72
3 111 75 118
3 105 67 104
3 84 83 64
3 95 130 69
3 106 96 88
3 98 97 107
3 98 108 99
3 71 114 142
3 121 122 43
3 103 72 54
3 110 93 81
3 65 75 111
3 67 105 59
3 95 59 130
3 154 87 112
3 113 127 101
3 114 109 108
3 71 109 114
3 142 121 71
3 89 143 48
3 116 91 90
3 125 92 124
3 94 117 81
3 132 119 86
3 87 154 113
3 107 106 128
3 134 98 107
3 108 98 120
3 143 168 54
3 123 80 92
3 110 124 93
3 85 119 126
3 138 128 127
3 128 106 127
3 128 134 107
3 134 120 98
3 112 100 129
3 124 117 125
3 69 130 150
3 133 134 128
3 120 114 108
3 115 129 100
3 102 159 115
3 78 159 102
3 183 78 91
3 91 116 183
3 104 80 123
3 117 135 125
3 135 144 125
3 111 118 135
3 84 131 136
3 131 53 137
3 85 137 53
3 85 126 156
3 139 120 134
3 147 142 141
3 122 143 89
3 144 135 118
3 146 134 133
3 139 134 146
3 120 140 114
3 140 120 139
3 115 159 129
3 121 147 122
3 122 148 143
3 149 118 83
3 90 150 151
3 146 133 145
3 139 146 145
3 54 168 103
3 180 149 84
3 152 153 132
3 139 145 140
3 103 152 62
3 144 118 186
3 149 155 118
3 153 119 132
3 140 145 157
3 141 140 158
3 147 148 122
3 103 5 152
3 160 123 179
3 161 130 105
3 163 131 137
3 164 119 153
3 167 148 166
3 103 169 5
3 104 160 161
3 155 186 118
3 187 149 170
3 180 136 162
3 163 136 131
3 169 6 5
3 160 172 171
3 179 123 186
3 149 187 155
3 163 189 136
3 189 162 136
3 4 156 126
3 119 164 126
3 165 157 154
3 204 147 141
3 192 183 116
3 171 177 160
3 177 161 160
3 161 178 130
3 185 170 180
3 178 150 130
3 150 178 190
3 126 164 4
3 192 116 151
3 157 158 140
3 148 147 176
3 181 129 159
3 182 168 167
3 184 183 192
3 180 162 185
3 200 151 190
3 200 192 151
3 165 175 173
3 201 206 174
3 165 112 175
3 183 181 159
3 184 181 183
3 182 6 169
3 178 161 177
3 188 162 191
3 162 189 191
3 174 206 225
3 193 194 165
3 195 176 204
3 148 176 196
3 197 182 7
3 199 198 205
3 179 186 252
3 225 202 174
3 203 112 129
3 195 196 176
3 196 166 148
3 209 171 199
3 209 199 210
3 3 218 156
3 202 193 174
3 165 194 157
3 194 158 157
3 212 195 204
3 166 208 167
3 208 7 182
3 205 198 172
3 178 177 190
3 201 211 228
3 228 219 201
3 219 206 201
3 175 112 203
3 194 212 158
3 212 204 158
3 205 213 199
3 213 210 199
3 215 172 179
3 216 179 252
3 218 3 217
3 192 200 222
3 220 211 201
3 220 201 173
3 203 207 175
3 213 230 210
3 214 213 205
3 227 177 171
3 216 215 179
3 222 190 177
3 186 155 223
3 170 224 187
3 185 224 170
3 219 225 206
3 234 194 193
3 208 0 7
3 226 258 209
3 258 227 209
3 294 230 242
3 230 213 214
3 188 224 185
3 220 173 247
3 229 219 232
3 219 229 225
3 263 196 195
3 208 166 298
3 192 237 184
3 294 246 226
3 177 227 221
3 217 231 218
3 222 237 192
3 220 238 211
3 211 232 228
3 181 207 203
3 234 193 233
3 234 235 194
3 196 236 298
3 223 252 186
3 200 190 222
3 240 232 211
3 229 202 225
3 274 233 193
3 194 235 262
3 262 241 212
3 212 241 195
3 257 181 184
3 214 242 230
3 215 244 243
3 233 235 234
3 263 236 196
3 246 247 258
3 248 246 242
3 241 249 195
3 246 238 247
3 214 215 243
3 205 215 214
3 250 245 239
3 248 250 246
3 250 238 246
3 243 242 214
3 281 254 253
3 188 2 1
3 193 202 274
3 255 250 248
3 247 237 258
3 242 243 248
3 251 256 216
3 229 274 202
3 237 221 258
3 216 256 244
3 253 259 281
3 260 259 253
3 259 260 272
3 261 224 1
3 245 265 229
3 252 223 254
3 255 245 250
3 284 286 233
3 266 233 286
3 243 271 248
3 264 271 243
3 271 264 267
3 235 266 269
3 270 272 249
3 255 273 245
3 272 270 259
3 289 271 267
3 277 272 261
3 265 273 282
3 269 262 235
3 272 277 278
3 296 263 278
3 256 276 279
3 279 289 267
3 287 273 255
3 274 282 275
3 265 282 274
3 284 276 283
3 266 286 285
3 276 288 279
3 288 289 279
3 290 268 285
3 254 280 252
3 254 281 293
3 270 281 259
3 287 282 273
3 275 282 288
3 262 270 241
3 270 262 293
3 271 289 287
3 288 276 275
3 290 284 283
3 284 290 286
3 285 291 266
3 270 293 281
3 293 262 269
3 285 286 290
3 292 291 280
3 254 293 280
3 291 292 266
3 288 287 289
3 282 287 288
3 280 293 292
3 269 292 293
3 292 269 266
3 208 298 0
3 185 162 188
3 224 253 187
3 253 224 260
3 58 68 75
3 273 265 245
3 298 166 196
3 117 124 110
3 151 116 90
3 95 47 59
3 56 47 95
3 55 78 46
3 21 37 29
3 37 21 25
3 82 73 74
3 272 260 261
3 60 56 69
3 158 204 141
3 35 17 22
3 212 194 262
3 45 29 40
3 118 75 68
3 99 77 98
3 144 186 123
3 2 188 191
3 291 251 280
3 221 222 177
3 30 13 24
3 140 141 142
3 12 10 22
3 266 235 233
3 150 190 151
3 80 51 79
3 41 25 35
3 131 84 44
3 258 221 227
3 86 119 85
3 260 224 261
3 48 45 43
3 205 172 215
3 238 220 247
3 101 127 106
3 257 237 247
3 87 113 101
3 109 99 108
3 294 226 209
3 238 239 240
3 263 296 236
3 52 63 73
3 59 105 130
3 23 49 50
3 77 70 97
3 179 172 160
3 256 264 244
3 210 294 209
3 294 210 230
3 53 33 36
3 191 231 2
3 133 138 145
3 251 290 256
3 290 251 268
3 167 208 182
3 163 218 189
3 37 61 29
3 69 150 90
3 237 257 184
3 80 104 67
3 257 207 181
3 27 32 10
3 14 24 13
3 245 229 240
3 149 83 84
3 20 38 28
3 26 55 35
3 55 26 56
3 104 161 105
3 216 244 215
3 38 68 58
3 148 167 143
3 271 287 248
3 75 65 66
3 193 165 174
3 143 167 168
3 209 227 171
3 256 283 276
3 129 181 203
3 246 294 242
3 59 42 67
3 229 232 240
3 1 277 261
3 50 152 132
3 17 12 22
3 180 170 149
3 122 89 48
3 218 191 189
3 191 218 231
3 187 223 155
3 223 187 253
3 96 107 97
3 107 96 106
3 110 81 117
3 62 152 50
3 249 278 263
3 278 249 272
3 87 100 112
3 257 173 207
3 173 257 247
3 222 221 237
3 240 239 245
3 156 4 3
3 84 136 180
3 104 123 160
3 290 283 256
3 71 43 40
3 244 264 243
3 223 253 254
3 111 94 65
3 124 92 93
3 137 85 156
3 265 274 229
3 250 239 238
3 268 251 291
3 216 252 280
3 171 198 199
3 195 249 263
3 34 67 42
3 67 34 80
3 1 224 188
3 256 267 264
3 267 256 279
3 92 144 123
3 144 92 125
3 127 145 138
3 232 219 228
3 44 64 38
3 64 44 84
3 78 183 159
3 287 255 248
3 211 238 240
3 284 233 274
3 142 114 140
3 128 138 133
3 218 137 156
3 137 218 163
3 76 39 100
3 154 145 127
3 145 154 157
3 9 10 8
3 270 249 241
3 147 204 176
3 175 207 173
3 276 274 275
3 274 276 284
3 226 246 258
3 100 87 76
3 113 154 127
3 280 251 216
3 291 285 268
3 111 117 94
3 117 111 135
3 112 165 154
3 121 142 147
3 168 182 169
3 171 172 198
3 169 103 168
3 19 23 33
3 297 197 298
3 297 298 296
3 297 296 278
3 297 278 277
3 297 277 295
3 297 295 231
3 297 231 217
3 297 217 153
3 164 153 217
3 297 153 152
3 297 152 197
3 217 3 4
3 164 217 4
3 295 1 2
3 295 277 1
3 231 295 2
3 197 7 0
3 0 298 197
3 182 197 6
3 197 5 6
3 296 298 236
3 5 197 152
