ply
format ascii 1.0
comment File created by ReMESH v2.1alpha (2008)
element vertex 308
property float x
property float y
property float z
element face 612
property list uchar int vertex_indices
end_header
0.729579 0.310499 0.159803
0.970756 0.314330 0.374912
0.912575 0.318647 0.205268
0.729579 0.288080 0.155242
0.860932 0.281964 0.181490
0.729579 0.277490 0.151365
0.729579 0.259674 0.141716
0.729579 0.253380 0.136242
0.729579 0.246940 0.103100
0.723659 0.245144 0.032055
0.937838 0.243783 0.016654
0.775113 0.023683 0.032306
0.820098 0.000000 0.027135
0.727402 0.023683 0.036773
0.737067 0.008984 0.029245
0.704400 0.023683 0.027475
0.577812 0.149864 0.020508
0.602896 0.246457 0.105860
0.602896 0.246905 0.119964
0.602896 0.253443 0.133528
0.602896 0.259086 0.138673
0.602896 0.276348 0.150156
0.602896 0.286840 0.154755
0.204230 0.247896 0.106245
0.204213 0.255875 0.121406
0.204188 0.274235 0.143272
0.180355 0.249737 0.098422
0.180400 0.259420 0.115630
0.180395 0.264044 0.120309
0.186697 0.276439 0.138709
0.180365 0.285221 0.146788
0.141690 0.310534 0.130691
0.156588 0.263237 0.108806
0.156610 0.254784 0.089935
0.078265 0.272641 0.062486
0.078265 0.277132 0.080773
0.078265 0.302313 0.099447
0.000000 0.318647 0.049793
0.602927 0.245144 0.002044
0.729579 0.326795 0.159803
0.731130 0.321424 0.178849
0.970756 0.322963 0.374912
0.729579 0.349214 0.155242
0.860932 0.355330 0.181490
0.729579 0.359804 0.151365
0.729579 0.377619 0.141716
0.860932 0.396845 0.177746
0.729579 0.383913 0.136242
0.729579 0.390353 0.122607
0.860932 0.415833 0.122076
0.729579 0.390353 0.103100
0.723659 0.392149 0.032055
0.860932 0.407319 0.006241
0.775113 0.613610 0.032306
0.820098 0.637294 0.027135
0.727402 0.613610 0.036773
0.737067 0.628309 0.029245
0.602927 0.392149 0.048676
0.704400 0.613610 0.027475
0.532146 0.454082 0.019625
0.602896 0.390836 0.105860
0.602896 0.390388 0.119964
0.602896 0.383851 0.133528
0.602896 0.378207 0.138673
0.602896 0.360946 0.150156
0.602896 0.350454 0.154755
0.204230 0.389397 0.106245
0.204213 0.381418 0.121406
0.204188 0.363059 0.143272
0.204178 0.353673 0.152228
0.204171 0.329587 0.159670
0.180355 0.387557 0.098422
0.180400 0.377874 0.115630
0.180395 0.373249 0.120309
0.180365 0.352073 0.146788
0.180352 0.329585 0.158731
0.159948 0.328713 0.147185
0.156588 0.374057 0.108806
0.156610 0.382509 0.089935
0.078265 0.364653 0.062486
0.078268 0.365875 0.041046
0.078265 0.360161 0.080773
0.078265 0.354240 0.088667
0.078265 0.334980 0.099447
0.602927 0.392149 0.002044
0.141690 0.326759 0.130691
0.159948 0.308580 0.147185
0.180352 0.307709 0.158731
0.204171 0.307707 0.159670
0.602896 0.309787 0.159777
0.602896 0.327506 0.159777
0.731130 0.315870 0.178849
0.925022 0.318647 0.374912
1.000000 0.318647 0.374912
0.860792 0.309738 0.173186
0.872569 0.229467 0.020125
0.937838 0.393510 0.016654
0.723659 0.245144 0.000000
0.723659 0.392149 0.000000
0.078268 0.271418 0.041046
0.180355 0.250589 0.027745
0.532146 0.183212 0.019625
0.860932 0.215880 0.143037
0.860932 0.259164 0.187208
0.860932 0.240448 0.177746
0.860932 0.378129 0.187208
0.039132 0.297954 0.073992
0.039132 0.328143 0.080460
0.039132 0.339340 0.073992
0.039134 0.346104 0.045420
0.039132 0.345394 0.058284
0.039132 0.342782 0.069256
0.039132 0.322557 0.081434
0.039132 0.294511 0.069256
0.039132 0.291900 0.058284
0.039134 0.291189 0.045420
0.039132 0.309151 0.080460
0.039132 0.314737 0.081434
0.878415 0.302023 0.061439
0.879652 0.292119 0.061613
0.897260 0.301257 0.064081
0.919354 0.306943 0.067179
0.945757 0.309975 0.070880
0.945698 0.304368 0.070872
0.926076 0.302115 0.068121
0.907517 0.293669 0.065519
0.862972 0.297520 0.089308
0.875809 0.291186 0.080029
0.878237 0.286233 0.071708
0.894746 0.290803 0.082013
0.916156 0.293646 0.089987
0.942195 0.295162 0.096289
0.942810 0.292359 0.091472
0.923459 0.291232 0.086789
0.905916 0.287008 0.076943
0.862971 0.263177 0.089309
0.875809 0.269511 0.080029
0.878237 0.274463 0.071708
0.894746 0.269894 0.082014
0.916156 0.267051 0.089988
0.942195 0.265535 0.096290
0.942810 0.268338 0.091473
0.923459 0.269465 0.086790
0.905915 0.273688 0.076944
0.897231 0.280348 0.064077
0.878415 0.258673 0.061441
0.879652 0.268577 0.061613
0.897260 0.259439 0.064082
0.919354 0.253753 0.067180
0.945757 0.250721 0.070881
0.945697 0.256327 0.070873
0.926076 0.258581 0.068122
0.907517 0.267027 0.065520
0.871230 0.263174 0.030400
0.881021 0.269509 0.042851
0.881067 0.274462 0.051518
0.899774 0.269892 0.046150
0.922551 0.267049 0.044371
0.949319 0.265533 0.045472
0.948586 0.268336 0.050271
0.928693 0.269463 0.049453
0.909119 0.273687 0.054095
0.881021 0.291184 0.042849
0.881067 0.286232 0.051517
0.899774 0.290801 0.046148
0.922552 0.293643 0.044368
0.949319 0.295159 0.045469
0.948586 0.292356 0.050270
0.928693 0.291230 0.049451
0.909119 0.287007 0.054094
0.875809 0.346108 0.080029
0.878415 0.335270 0.061439
0.878237 0.351060 0.071708
0.879652 0.345175 0.061613
0.894746 0.346491 0.082013
0.897260 0.336037 0.064081
0.916156 0.343648 0.089987
0.919354 0.330351 0.067179
0.942195 0.342132 0.096289
0.945757 0.327319 0.070880
0.942810 0.344935 0.091472
0.945698 0.332925 0.070872
0.923459 0.346062 0.086789
0.926076 0.335178 0.068121
0.905916 0.350285 0.076943
0.907517 0.343625 0.065519
0.875809 0.367783 0.080029
0.878237 0.362831 0.071708
0.894746 0.367399 0.082014
0.916156 0.370242 0.089988
0.942195 0.371758 0.096290
0.942810 0.368955 0.091473
0.923459 0.367829 0.086790
0.905915 0.363606 0.076944
0.878415 0.378621 0.061441
0.879652 0.368716 0.061613
0.897260 0.377854 0.064082
0.919354 0.383541 0.067180
0.945757 0.386573 0.070881
0.945697 0.380966 0.070873
0.926076 0.378713 0.068122
0.907517 0.370266 0.065520
0.897231 0.356946 0.064077
0.881021 0.367785 0.042851
0.881067 0.362832 0.051518
0.899774 0.367401 0.046150
0.922551 0.370245 0.044371
0.949319 0.371761 0.045472
0.948586 0.368957 0.050271
0.928693 0.367831 0.049453
0.909119 0.363607 0.054095
0.881021 0.346110 0.042849
0.881067 0.351061 0.051517
0.899774 0.346493 0.046148
0.922552 0.343650 0.044368
0.949319 0.342134 0.045469
0.948586 0.344937 0.050270
0.928693 0.346064 0.049451
0.909119 0.350286 0.054094
0.872185 0.296971 0.135363
0.872216 0.307809 0.154134
0.860810 0.301474 0.165124
0.873434 0.306876 0.135360
0.873451 0.312761 0.145554
0.891214 0.297738 0.135331
0.891245 0.308192 0.153438
0.913524 0.292052 0.135293
0.913563 0.305349 0.158325
0.940186 0.289020 0.135249
0.940229 0.303833 0.160906
0.940126 0.294626 0.135249
0.940160 0.306636 0.156051
0.920312 0.296879 0.135282
0.920343 0.307763 0.154133
0.901572 0.305326 0.135313
0.901591 0.311986 0.146849
0.891185 0.318647 0.135331
0.872217 0.329484 0.154134
0.873451 0.324532 0.145554
0.891245 0.329100 0.153438
0.913563 0.331944 0.158326
0.940229 0.333459 0.160907
0.940160 0.330656 0.156051
0.920343 0.329530 0.154133
0.901591 0.325307 0.146849
0.872185 0.340322 0.135364
0.860760 0.352991 0.135384
0.873434 0.330417 0.135361
0.891214 0.339555 0.135332
0.913524 0.345242 0.135295
0.940186 0.348274 0.135250
0.940126 0.342667 0.135250
0.920312 0.340414 0.135283
0.901572 0.331967 0.135314
0.872153 0.329486 0.116592
0.860710 0.318649 0.105639
0.873417 0.324533 0.125167
0.891184 0.329102 0.117224
0.913486 0.331946 0.112262
0.940143 0.333462 0.109592
0.940091 0.330658 0.114447
0.920280 0.329532 0.116432
0.901552 0.325308 0.123778
0.872153 0.307811 0.116590
0.873417 0.312762 0.125166
0.891184 0.308194 0.117222
0.913486 0.305351 0.112260
0.940143 0.303836 0.109590
0.940091 0.306638 0.114445
0.920280 0.307765 0.116430
0.901552 0.311987 0.123777
0.867100 0.246004 0.059855
0.872569 0.407827 0.020125
0.871230 0.339776 0.030397
0.871230 0.297517 0.030397
0.862971 0.374117 0.089309
0.862972 0.339773 0.089308
0.867101 0.314692 0.059853
0.867101 0.322602 0.059853
0.860932 0.236298 0.103767
0.860932 0.400995 0.103767
0.860932 0.221460 0.122076
0.860760 0.284303 0.135382
0.860810 0.335818 0.165125
0.860792 0.327555 0.173186
0.860932 0.421414 0.143037
0.871230 0.374120 0.030400
0.867100 0.391290 0.059855
0.729579 0.246941 0.122607
0.156583 0.368820 0.114036
0.156583 0.268474 0.114036
0.156564 0.286597 0.130512
0.078265 0.311921 0.101070
0.078265 0.325372 0.101070
0.078265 0.283053 0.088667
0.156564 0.350697 0.130512
0.180355 0.386705 0.027745
0.577812 0.487430 0.020508
0.602927 0.245144 0.048676
0.779535 0.637294 0.028086
0.860932 0.229974 0.006241
0.779535 0.000000 0.028086
0.204178 0.283620 0.152228
0.180383 0.365042 0.130729
0.204208 0.377202 0.125813
0.186697 0.360855 0.138709
0.204208 0.260092 0.125813
0.180383 0.272252 0.130729
3 166 123 167
3 166 122 123
3 191 198 190
3 191 199 198
3 208 215 207
3 208 216 215
3 180 190 178
3 180 191 190
3 216 179 215
3 216 181 179
3 181 178 179
3 181 180 178
3 230 229 228
3 230 231 229
3 131 141 132
3 131 140 141
3 268 228 267
3 268 230 228
3 199 207 198
3 199 208 207
3 158 167 159
3 158 166 167
3 242 250 241
3 242 251 250
3 149 159 150
3 149 158 159
3 251 259 250
3 251 260 259
3 140 150 141
3 140 149 150
3 260 267 259
3 260 268 267
3 122 132 123
3 122 131 132
3 231 241 229
3 231 242 241
3 264 219 263
3 264 222 219
3 195 203 194
3 195 204 203
3 127 137 128
3 127 136 137
3 274 118 162
3 274 277 118
3 220 283 221
3 220 237 283
3 238 245 237
3 238 247 245
3 173 170 171
3 173 172 170
3 145 155 146
3 145 154 155
3 212 171 211
3 212 173 171
3 254 263 255
3 186 287 275
3 186 194 287
3 277 127 118
3 277 126 127
3 170 275 276
3 170 186 275
3 245 255 246
3 245 254 255
3 222 220 219
3 222 223 220
3 154 163 155
3 154 162 163
3 135 145 136
3 135 271 145
3 203 273 286
3 203 211 273
3 237 246 283
3 237 245 246
3 171 276 278
3 171 170 276
3 118 128 119
3 118 127 128
3 187 194 186
3 187 195 194
3 256 263 254
3 256 264 263
3 211 278 273
3 211 171 278
3 271 154 145
3 271 153 154
3 153 162 154
3 153 274 162
3 219 221 282
3 219 220 221
3 247 254 245
3 247 256 254
3 172 186 170
3 172 187 186
3 136 146 137
3 136 145 146
3 204 211 203
3 204 212 211
3 263 282 255
3 263 219 282
3 194 286 287
3 194 203 286
3 126 136 127
3 126 135 136
3 162 119 163
3 162 118 119
3 223 237 220
3 223 238 237
3 224 223 222
3 224 225 223
3 176 188 174
3 176 189 188
3 139 149 140
3 139 148 149
3 146 156 147
3 146 155 156
3 198 206 197
3 198 207 206
3 240 248 239
3 240 249 248
3 258 265 257
3 258 266 265
3 215 177 214
3 215 179 177
3 163 120 164
3 163 119 120
3 120 130 121
3 120 129 130
3 157 166 158
3 157 165 166
3 197 205 196
3 197 206 205
3 239 247 238
3 239 248 247
3 259 266 258
3 259 267 266
3 205 212 204
3 205 213 212
3 164 121 165
3 164 120 121
3 121 131 122
3 121 130 131
3 156 165 157
3 156 164 165
3 196 204 195
3 196 205 204
3 250 258 249
3 250 259 258
3 248 256 247
3 248 257 256
3 206 213 205
3 206 214 213
3 165 122 166
3 165 121 122
3 119 129 120
3 119 128 129
3 179 176 177
3 179 178 176
3 214 175 213
3 214 177 175
3 257 264 256
3 257 265 264
3 241 249 240
3 241 250 249
3 188 195 187
3 188 196 195
3 147 157 148
3 147 156 157
3 138 148 139
3 138 147 148
3 174 187 172
3 174 188 187
3 229 240 227
3 229 241 240
3 265 222 264
3 265 224 222
3 226 225 224
3 226 227 225
3 178 189 176
3 178 190 189
3 128 138 129
3 128 137 138
3 137 147 138
3 137 146 147
3 190 197 189
3 190 198 197
3 227 239 225
3 227 240 239
3 266 224 265
3 266 226 224
3 228 227 226
3 228 229 227
3 175 172 173
3 175 174 172
3 129 139 130
3 129 138 139
3 148 158 149
3 148 157 158
3 189 196 188
3 189 197 196
3 225 238 223
3 225 239 238
3 267 226 266
3 267 228 226
3 213 173 212
3 213 175 173
3 177 174 175
3 177 176 174
3 130 140 131
3 130 139 140
3 155 164 156
3 155 163 164
3 207 214 206
3 207 215 214
3 249 257 248
3 249 258 257
3 261 268 260
3 261 269 268
3 218 183 217
3 218 185 183
3 202 184 185
3 123 133 124
3 123 132 133
3 169 125 144
3 210 217 209
3 210 218 217
3 252 260 251
3 252 261 260
3 236 262 253
3 200 208 199
3 200 209 208
3 160 169 161
3 160 168 169
3 125 134 144
3 168 125 169
3 168 124 125
3 209 216 208
3 209 217 216
3 236 270 262
3 243 251 242
3 243 252 251
3 201 209 200
3 201 210 209
3 161 169 144
3 124 134 125
3 124 133 134
3 167 124 168
3 167 123 124
3 202 185 218
3 236 234 270
3 244 252 243
3 244 253 252
3 202 210 201
3 150 160 151
3 150 159 160
3 143 152 144
3 184 192 182
3 184 193 192
3 232 231 230
3 232 233 231
3 253 261 252
3 253 262 261
3 202 218 210
3 159 168 160
3 159 167 168
3 134 143 144
3 185 182 183
3 185 184 182
3 217 181 216
3 217 183 181
3 262 269 261
3 262 270 269
3 233 242 231
3 233 243 242
3 193 200 192
3 193 201 200
3 152 161 144
3 133 143 134
3 133 142 143
3 183 180 181
3 183 182 180
3 236 235 234
3 270 232 269
3 270 234 232
3 235 243 233
3 235 244 243
3 202 201 193
3 141 151 142
3 141 150 151
3 132 142 133
3 132 141 142
3 202 193 184
3 234 233 232
3 234 235 233
3 269 230 268
3 269 232 230
3 236 244 235
3 182 191 180
3 182 192 191
3 142 152 143
3 142 151 152
3 151 161 152
3 151 160 161
3 192 199 191
3 192 200 199
3 236 253 244
3 296 101 100
3 296 59 101
3 38 59 84
3 38 101 59
3 84 97 38
3 84 98 97
3 300 96 10
3 300 52 96
3 97 52 300
3 97 98 52
3 115 37 109
3 100 80 296
3 100 99 80
3 99 109 80
3 99 115 109
3 98 297 58
3 98 58 56
3 16 38 97
3 98 84 297
3 56 299 98
3 299 52 98
3 15 16 97
3 97 300 301
3 300 12 301
3 97 301 14
3 84 59 297
3 14 15 97
3 16 101 38
3 299 54 52
3 296 57 59
3 15 298 16
3 299 53 54
3 56 55 299
3 300 11 12
3 300 9 11
3 15 13 298
3 101 298 100
3 55 53 299
3 59 57 297
3 13 9 298
3 13 11 9
3 54 51 52
3 54 53 51
3 301 11 13
3 297 57 55
3 16 298 101
3 58 55 56
3 57 53 55
3 57 51 53
3 12 11 301
3 297 55 58
3 301 13 14
3 14 13 15
3 100 33 34
3 50 48 49
3 70 89 90
3 70 88 89
3 67 61 66
3 67 62 61
3 100 26 33
3 102 288 281
3 23 27 26
3 23 24 27
3 65 39 42
3 65 90 39
3 82 111 108
3 82 81 111
3 69 305 74
3 69 68 305
3 284 43 42
3 7 20 19
3 7 6 20
3 19 288 7
3 19 18 288
3 37 116 117
3 73 289 303
3 294 116 106
3 294 36 116
3 107 37 112
3 75 69 74
3 37 115 114
3 21 22 302
3 103 3 5
3 37 114 113
3 71 66 296
3 292 112 117
3 292 293 112
3 63 67 304
3 63 62 67
3 100 34 99
3 281 288 279
3 306 19 20
3 306 24 19
3 280 50 49
3 289 81 82
3 289 77 81
3 114 35 113
3 114 34 35
3 82 83 295
3 306 25 29
3 79 78 296
3 288 8 279
3 293 31 85
3 293 292 31
3 64 42 44
3 64 65 42
3 30 25 302
3 30 29 25
3 0 3 94
3 30 302 87
3 47 61 62
3 47 48 61
3 82 295 289
3 78 71 296
3 48 285 49
3 100 17 23
3 100 298 17
3 21 302 25
3 33 32 35
3 304 68 63
3 109 37 110
3 115 34 114
3 115 99 34
3 83 293 295
3 42 105 44
3 23 17 18
3 104 7 102
3 294 32 290
3 294 35 32
3 64 69 65
3 75 88 70
3 75 87 88
3 68 69 64
3 307 290 28
3 7 104 6
3 100 23 26
3 60 48 50
3 60 61 48
3 83 108 107
3 83 82 108
3 3 4 94
3 291 36 294
3 68 64 63
3 303 305 304
3 289 295 303
3 108 37 107
3 303 304 73
3 37 113 106
3 298 8 17
3 298 9 8
3 23 19 24
3 23 18 19
3 46 44 105
3 46 45 44
3 81 78 79
3 81 77 78
3 52 50 280
3 52 51 50
3 20 25 306
3 288 102 7
3 27 290 32
3 27 28 290
3 71 67 66
3 71 72 67
3 111 37 108
3 113 294 106
3 113 35 294
3 80 79 296
3 47 46 285
3 30 87 86
3 103 6 104
3 103 5 6
3 26 32 33
3 26 27 32
3 61 60 66
3 90 0 39
3 90 89 0
3 304 72 73
3 304 67 72
3 284 42 39
3 5 22 21
3 5 3 22
3 6 21 20
3 43 105 42
3 69 75 70
3 112 37 117
3 293 85 295
3 305 68 304
3 302 88 87
3 307 291 290
3 110 37 111
3 69 90 65
3 69 70 90
3 290 291 294
3 279 9 300
3 279 8 9
3 20 21 25
3 48 47 285
3 77 73 72
3 77 289 73
3 293 107 112
3 293 83 107
3 60 51 57
3 60 50 51
3 22 88 302
3 22 89 88
3 21 6 5
3 33 35 34
3 62 45 47
3 62 63 45
3 81 110 111
3 81 79 110
3 116 292 117
3 116 36 292
3 76 87 75
3 76 86 87
3 66 57 296
3 66 60 57
3 28 24 306
3 28 27 24
3 3 103 4
3 28 306 307
3 63 44 45
3 63 64 44
3 79 109 110
3 79 80 109
3 76 75 74
3 291 292 36
3 8 18 17
3 8 288 18
3 3 89 22
3 3 0 89
3 47 45 46
3 78 72 71
3 78 77 72
3 106 116 37
3 291 31 292
3 306 29 307
3 284 46 43
3 284 285 46
3 126 278 276
3 126 277 278
3 95 271 279
3 255 280 49
3 102 221 94
3 95 273 274
3 95 272 273
3 279 280 255
3 94 104 102
3 46 105 43
3 95 96 272
3 95 10 96
3 286 272 287
3 271 135 279
3 280 275 287
3 246 49 285
3 281 282 102
3 94 284 2
3 281 255 282
3 272 52 280
3 4 103 104
3 246 285 283
3 280 276 275
3 135 126 279
3 283 285 284
3 281 279 255
3 95 153 271
3 102 282 221
3 300 10 95
3 94 4 104
3 279 300 95
3 255 49 246
3 280 287 272
3 280 126 276
3 280 279 126
3 273 272 286
3 273 277 274
3 273 278 277
3 95 274 153
3 94 283 284
3 94 221 283
3 272 96 52
3 94 91 0
3 40 91 92
3 284 92 41
3 284 40 92
3 41 1 93
3 39 40 284
3 39 91 40
3 39 0 91
3 1 91 94
3 1 92 91
3 92 1 41
3 2 41 93
3 2 284 41
3 93 94 2
3 93 1 94
3 295 76 74
3 295 74 303
3 85 76 295
3 85 86 76
3 85 31 86
3 86 291 30
3 307 29 30
3 291 86 31
3 74 305 303
3 307 30 291
