ply
format ascii 1.0
comment File created by ReMESH v2.1alpha (2008)
element vertex 200
property float x
property float y
property float z
element face 396
property list uchar int vertex_indices
end_header
-0.041730 0.037494 0.010975
-0.036573 0.034363 0.029984
0.028183 0.090342 -0.022163
0.043099 0.096968 0.025573
-0.068156 0.117031 0.054255
-0.027359 0.180048 -0.006852
-0.010797 0.123028 0.035069
-0.024225 0.103963 0.043058
-0.067780 0.116938 -0.009495
-0.040324 0.035293 0.042995
-0.063677 0.161306 -0.017376
-0.075885 0.089909 -0.015263
-0.041678 0.157459 0.005557
-0.055352 0.040366 0.047800
-0.037287 0.047642 0.039279
0.028885 0.121376 0.021901
-0.040184 0.162855 -0.012894
0.006723 0.042514 0.045317
-0.056647 0.152929 0.032129
-0.061422 0.153894 0.001890
-0.081177 0.108805 0.030248
0.000162 0.056012 0.055968
0.035132 0.051817 0.032199
0.043706 0.049334 0.032704
-0.073707 0.156900 0.022323
-0.062704 0.169232 -0.045664
-0.069575 0.155442 0.001585
0.043706 0.067908 0.026236
0.000175 0.094750 -0.033357
-0.040272 0.070635 0.042663
-0.056608 0.155904 0.012326
-0.003613 0.071599 0.058161
-0.070417 0.141438 0.046021
-0.059833 0.076911 0.043151
-0.043762 0.129579 0.014119
-0.031667 0.085902 0.042757
-0.069821 0.088742 0.043992
0.035203 0.111224 -0.005504
-0.040727 0.084882 0.043219
-0.091500 0.130574 0.007258
-0.061247 0.168794 -0.062586
-0.006029 0.095312 0.055893
-0.024964 0.095501 0.045972
0.004614 0.101952 0.045670
-0.086343 0.098864 0.027769
-0.072393 0.164410 -0.041903
-0.053280 0.094088 0.045655
-0.083859 0.097031 -0.005246
-0.039207 0.107019 0.039357
0.008937 0.110230 0.041407
-0.049795 0.117016 0.032451
-0.009900 0.177098 -0.030193
-0.069805 0.108352 0.038029
-0.029253 0.037943 0.054953
0.032208 0.037561 0.023850
-0.061580 0.075292 -0.019091
-0.092593 0.114051 0.012450
-0.048920 0.148334 0.010802
0.022352 0.048471 0.040953
-0.060688 0.123314 0.043158
0.010407 0.087950 0.055454
-0.046429 0.164519 0.005520
0.023840 0.097269 0.045974
0.056567 0.048475 0.019175
-0.009425 0.168242 -0.019976
0.026771 0.117054 0.032550
-0.090035 0.113518 0.032754
-0.013749 0.161774 -0.013685
-0.094805 0.124620 0.022832
-0.063122 0.136507 0.037059
-0.053160 0.137709 0.029980
0.055464 0.068234 0.027113
-0.031537 0.166075 -0.006246
-0.024573 0.157896 -0.002360
0.017938 0.057198 0.048905
-0.086314 0.123566 -0.002859
0.017448 0.075772 0.053540
0.036964 0.066239 0.037206
-0.083581 0.143014 0.002342
0.043769 0.087886 -0.004806
0.035848 0.091247 0.039276
-0.078117 0.158620 -0.015531
-0.051113 0.063006 0.033805
0.014521 0.035041 -0.021437
0.054802 0.048642 0.003073
-0.026859 0.107374 -0.021328
0.025641 0.048842 -0.019846
-0.016619 0.116285 -0.015718
0.062436 0.063897 0.010665
0.041142 0.060903 -0.004933
0.037195 0.065667 -0.013875
-0.033869 0.117532 -0.014660
-0.073809 0.148288 -0.028529
0.020695 0.097564 -0.022348
-0.017779 0.187425 -0.020528
0.047176 0.074247 0.010910
0.031324 0.076141 -0.020722
0.044628 0.099367 0.005379
-0.030219 0.120057 0.029010
-0.068701 0.182181 -0.056488
-0.078791 0.149818 0.039530
-0.027938 0.126404 0.011108
0.012215 0.127071 0.029990
-0.077853 0.151819 -0.003748
-0.078920 0.175696 -0.047407
-0.004526 0.130037 0.025155
-0.085235 0.109783 0.003524
-0.074835 0.154803 -0.021187
0.002486 0.129940 -0.003240
0.021175 0.126469 0.004724
0.057418 0.072023 0.005800
-0.042916 0.172225 -0.005274
0.002120 0.132694 0.006843
-0.065969 0.034875 0.040581
-0.073577 0.036460 0.006381
-0.063081 0.046452 0.037835
-0.013101 0.101649 0.043906
-0.074274 0.168537 -0.024365
-0.081770 0.130458 0.052803
-0.023602 0.082627 0.056090
-0.090167 0.146613 0.028661
-0.052432 0.051662 0.033172
-0.068398 0.069748 0.035136
-0.016823 0.049996 0.049501
-0.028017 0.054354 0.035847
-0.093272 0.119841 0.042446
-0.070500 0.140774 -0.008537
-0.017808 0.064632 0.052481
-0.084323 0.112779 0.046676
-0.043807 0.034897 -0.025916
-0.060379 0.039887 0.019976
-0.025439 0.091182 -0.035814
-0.067714 0.042783 -0.002313
-0.049238 0.054021 0.014826
-0.058466 0.049384 0.006322
-0.090106 0.151102 0.012722
-0.002960 0.112106 -0.020997
-0.057962 0.057566 0.003861
0.014378 0.119775 -0.013859
-0.044164 0.124332 -0.010740
-0.069223 0.154121 -0.050734
-0.070728 0.064539 0.000504
-0.090564 0.136843 0.016943
-0.082845 0.075853 0.021881
-0.081515 0.073744 -0.000212
-0.087170 0.085927 0.001088
-0.081834 0.081361 0.031657
-0.031466 0.077414 -0.032714
-0.091148 0.094349 0.015216
-0.058814 0.107238 -0.018487
0.021721 0.060086 -0.027051
-0.001808 0.100628 -0.023173
-0.053782 0.047958 -0.006120
-0.053225 0.145351 -0.001311
-0.036995 0.044085 -0.028211
-0.031267 0.093307 -0.024917
-0.049676 0.129101 -0.003316
0.010941 0.048738 -0.027443
-0.018230 0.043690 -0.028172
-0.043791 0.046621 -0.011479
0.032520 0.049739 -0.008026
-0.013559 0.053395 -0.033987
-0.022276 0.172807 -0.020919
0.051761 0.059235 -0.004573
-0.053589 0.099065 -0.021630
-0.032415 0.054188 -0.010243
-0.047667 0.067304 -0.014318
-0.026659 0.050545 -0.024722
-0.056637 0.062362 -0.006239
0.007006 0.069025 -0.033497
-0.020347 0.071303 -0.039310
-0.036466 0.078632 -0.020189
-0.010967 0.085499 -0.039287
-0.027233 0.033922 -0.028738
0.008691 0.035123 -0.014807
0.006068 0.039351 -0.010020
0.020230 0.035214 -0.001995
-0.037864 0.033828 -0.019867
-0.037993 0.038631 -0.009514
0.014469 0.036561 0.004567
-0.051047 0.033792 -0.013525
0.034483 0.036044 0.002571
-0.068844 0.060258 0.014808
-0.025969 0.037912 0.010938
-0.021518 0.038703 -0.016740
0.000087 0.033733 0.011888
-0.066480 0.033545 -0.007148
-0.005204 0.038142 0.015849
0.024444 0.035464 0.019702
-0.053235 0.033730 0.010656
0.009714 0.037576 0.032193
-0.033294 0.033928 0.007721
0.016250 0.035495 0.043568
-0.062477 0.034372 0.019557
-0.032850 0.034545 0.046629
-0.007508 0.035391 0.048546
-0.019179 0.038968 0.040487
-0.063267 0.145253 -0.013009
-0.048803 0.143453 0.004888
-0.067234 0.150965 -0.043421
3 106 20 56
3 39 68 142
3 118 32 100
3 10 25 117
3 118 4 32
3 62 65 49
3 197 156 126
3 117 99 104
3 105 112 101
3 36 46 52
3 6 105 101
3 198 73 57
3 41 31 60
3 17 74 21
3 21 76 31
3 181 84 63
3 36 33 46
3 52 46 50
3 26 103 24
3 23 71 22
3 67 162 51
3 41 60 43
3 115 13 121
3 50 46 48
3 90 86 150
3 22 71 27
3 97 95 79
3 33 29 46
3 61 30 57
3 29 38 46
3 13 9 14
3 197 126 92
3 121 13 14
3 48 46 38
3 29 35 38
3 50 48 98
3 133 130 121
3 38 42 48
3 111 94 16
3 14 124 29
3 42 38 35
3 43 62 49
3 29 124 35
3 42 7 48
3 6 7 49
3 7 98 48
3 109 108 112
3 6 102 105
3 142 120 135
3 7 6 98
3 105 102 112
3 67 73 153
3 89 90 79
3 123 21 127
3 119 127 31
3 119 31 41
3 40 199 140
3 127 21 31
3 49 102 6
3 7 116 43
3 7 43 49
3 123 17 21
3 76 21 74
3 155 171 164
3 32 4 69
3 99 25 40
3 69 4 59
3 4 52 59
3 61 12 5
3 22 27 77
3 60 76 62
3 60 31 76
3 57 12 61
3 32 69 18
3 59 52 50
3 121 29 82
3 59 70 69
3 69 70 18
3 70 59 50
3 58 22 77
3 192 54 22
3 73 67 72
3 3 95 97
3 192 22 58
3 58 77 74
3 70 50 34
3 94 72 64
3 198 34 156
3 98 6 101
3 74 17 58
3 65 62 80
3 12 73 72
3 71 63 88
3 76 74 77
3 77 27 3
3 12 72 5
3 65 80 3
3 97 79 37
3 77 80 76
3 76 80 62
3 17 192 58
3 53 195 123
3 109 37 138
3 94 64 51
3 43 60 62
3 159 180 152
3 67 16 162
3 57 73 12
3 17 123 195
3 84 163 88
3 23 63 71
3 165 159 166
3 72 94 5
3 67 64 72
3 77 3 80
3 178 184 183
3 39 142 78
3 10 197 25
3 197 199 25
3 165 166 171
3 160 90 89
3 73 198 153
3 134 132 130
3 87 108 136
3 95 89 79
3 39 56 68
3 47 145 148
3 19 197 10
3 160 176 86
3 64 67 51
3 145 144 143
3 181 63 54
3 79 90 96
3 1 183 196
3 194 190 195
3 75 56 39
3 134 130 133
3 199 40 25
3 88 63 84
3 78 142 135
3 160 86 90
3 3 97 15
3 18 70 57
3 83 86 176
3 70 34 198
3 57 70 198
3 100 24 120
3 71 110 95
3 103 135 24
3 95 27 71
3 30 26 24
3 85 155 164
3 27 95 3
3 24 135 120
3 18 100 32
3 30 24 18
3 26 10 117
3 19 10 26
3 98 101 34
3 50 98 34
3 81 26 117
3 101 156 34
3 15 97 37
3 15 65 3
3 71 88 110
3 100 18 24
3 18 57 30
3 41 116 42
3 61 5 111
3 15 37 109
3 130 115 121
3 25 99 117
3 41 43 116
3 26 81 103
3 65 15 102
3 102 15 109
3 109 112 102
3 121 14 29
3 16 94 162
3 146 33 36
3 164 149 91
3 7 42 116
3 35 119 42
3 115 113 13
3 9 53 14
3 122 33 146
3 0 191 1
3 35 124 127
3 41 42 119
3 197 92 199
3 128 118 125
3 9 194 53
3 159 165 167
3 118 100 120
3 170 167 147
3 193 113 130
3 52 44 36
3 19 30 61
3 44 148 146
3 156 153 198
3 114 193 130
3 113 115 130
3 121 82 133
3 128 4 118
3 119 35 127
3 124 123 127
3 53 123 14
3 14 123 124
3 44 146 36
3 20 44 52
3 137 134 133
3 125 118 120
3 140 45 40
3 104 40 45
3 140 92 107
3 140 107 45
3 151 136 93
3 131 147 155
3 104 81 117
3 94 111 5
3 104 45 81
3 28 93 2
3 147 167 171
3 155 147 171
3 19 61 111
3 45 107 81
3 167 165 171
3 120 142 125
3 107 92 103
3 129 159 154
3 154 159 167
3 56 66 68
3 28 172 131
3 129 180 159
3 19 26 30
3 106 44 20
3 106 148 44
3 143 146 145
3 145 146 148
3 131 155 151
3 11 145 47
3 81 107 103
3 142 68 125
3 168 152 137
3 11 144 145
3 11 47 106
3 11 106 8
3 16 19 111
3 152 134 137
3 75 39 78
3 68 66 125
3 47 148 106
3 75 106 56
3 78 135 103
3 195 192 17
3 129 154 173
3 163 110 88
3 22 54 23
3 108 109 138
3 2 79 96
3 108 101 112
3 91 87 85
3 131 151 28
3 87 136 85
3 152 132 134
3 153 156 19
3 126 156 8
3 91 101 108
3 149 8 139
3 151 93 28
3 8 156 139
3 93 138 37
3 2 37 79
3 153 16 67
3 139 91 149
3 91 108 87
3 93 37 2
3 139 156 101
3 108 138 136
3 89 95 110
3 139 101 91
3 132 152 180
3 85 151 155
3 89 110 163
3 55 149 164
3 163 84 160
3 163 160 89
3 55 144 11
3 84 181 160
3 132 186 114
3 103 126 75
3 55 164 171
3 126 103 92
3 171 166 55
3 8 75 126
3 168 55 166
3 160 181 176
3 141 144 55
3 85 164 91
3 157 86 83
3 150 86 157
3 150 169 96
3 2 96 169
3 55 11 149
3 132 114 130
3 16 153 19
3 8 106 75
3 2 169 28
3 159 152 166
3 157 83 158
3 150 157 169
3 96 90 150
3 28 169 172
3 103 75 78
3 180 186 132
3 158 83 173
3 157 158 161
3 169 157 161
3 172 169 170
3 170 169 161
3 149 11 8
3 168 141 55
3 51 162 94
3 170 161 167
3 197 19 156
3 185 175 174
3 158 167 161
3 172 170 131
3 136 151 85
3 136 138 93
3 152 168 166
3 158 173 154
3 158 154 167
3 170 147 131
3 190 188 192
3 176 181 179
3 187 190 196
3 191 183 1
3 66 56 20
3 82 29 33
3 83 176 174
3 194 195 53
3 125 66 128
3 184 196 183
3 66 20 128
3 20 52 128
3 143 144 182
3 174 179 185
3 143 122 146
3 174 175 184
3 128 52 4
3 187 175 185
3 182 144 141
3 188 54 192
3 114 186 193
3 141 168 137
3 182 141 137
3 143 182 122
3 133 182 137
3 9 1 194
3 54 63 23
3 133 82 182
3 182 82 122
3 65 102 49
3 186 189 193
3 180 189 186
3 92 140 199
3 173 177 129
3 129 177 180
3 180 191 189
3 33 122 82
3 180 177 191
3 189 1 193
3 193 1 113
3 173 83 174
3 181 54 188
3 189 191 0
3 177 178 191
3 40 104 99
3 190 192 195
3 179 181 188
3 173 174 177
3 177 184 178
3 1 9 113
3 185 188 190
3 185 190 187
3 187 196 184
3 113 9 13
3 174 176 179
3 175 187 184
3 184 177 174
3 194 196 190
3 194 1 196
3 0 1 189
3 185 179 188
3 183 191 178